<svg width="70" height="71" viewBox="0 0 70 71" fill="none" xmlns="http://www.w3.org/2000/svg">
<path d="M70 0L35 35.5L0 71V39.3378L38.7838 0H70Z" fill="#D22856"/>
<path d="M25.9192 37.3147L24.9863 38.2476L19.9785 37.0392L21.1531 42.0808L20.2831 42.9509L18.9393 36.9087L13.3757 35.7244L14.2844 34.8157L18.8378 35.8598L17.8082 31.2919L18.6831 30.417L19.8384 35.9516L25.9192 37.3147ZM19.8722 29.2279L20.6408 28.4593L24.5706 32.3892C25.2956 33.1142 25.9289 33.7925 26.4702 34.4242L26.5089 34.3855L24.5754 24.5247L25.4745 23.6256L32.5414 30.6925L31.768 31.4659L27.8769 27.5748C27.2291 26.927 26.5766 26.2197 25.9192 25.4527L25.8757 25.4962L27.8382 35.3957L26.9391 36.2948L19.8722 29.2279ZM36.6549 26.579L35.8332 27.4007L29.4962 21.0637L27.2581 23.3017L26.5283 22.5718L31.826 17.2741L32.5559 18.004L30.3179 20.242L36.6549 26.579Z" fill="white"/>
</svg>
